<?xml version="1.0" encoding="UTF-8"?>
<svg xmlns="http://www.w3.org/2000/svg" xmlns:xlink="http://www.w3.org/1999/xlink" width="50px" height="50px" viewBox="0 0 50 50" version="1.1">
<g id="surface1">
<path style=" stroke:none;fill-rule:nonzero;fill:rgb(70, 74, 78);fill-opacity:1;" d="M 24.972656 28.710938 L 49.667969 10.125 L 49.667969 9.042969 C 49.667969 7.929688 48.765625 7.027344 47.652344 7.027344 L 2.292969 7.027344 C 1.179688 7.027344 0.273438 7.929688 0.273438 9.042969 L 0.273438 10.125 Z M 24.972656 28.710938 "/>
<path style=" stroke:none;fill-rule:nonzero;fill:rgb(70, 74, 78);fill-opacity:1;" d="M 26.292969 33.214844 C 25.902344 33.507812 25.4375 33.65625 24.972656 33.65625 C 24.507812 33.65625 24.042969 33.507812 23.652344 33.214844 L 0.273438 15.617188 L 0.273438 40.898438 C 0.273438 42.015625 1.179688 42.917969 2.292969 42.917969 L 47.652344 42.917969 C 48.765625 42.917969 49.667969 42.015625 49.667969 40.898438 L 49.667969 15.617188 Z M 26.292969 33.214844 "/>
</g>
</svg>
